<?xml version="1.0" encoding="utf-8"?>
<!-- Generator: Adobe Illustrator 15.0.2, SVG Export Plug-In  -->
<!DOCTYPE svg PUBLIC "-//W3C//DTD SVG 1.1//EN" "http://www.w3.org/Graphics/SVG/1.1/DTD/svg11.dtd" [
	<!ENTITY ns_flows "http://ns.adobe.com/Flows/1.0/">
]>
<svg version="1.1"
	 xmlns="http://www.w3.org/2000/svg" xmlns:xlink="http://www.w3.org/1999/xlink" xmlns:a="http://ns.adobe.com/AdobeSVGViewerExtensions/3.0/"
	 x="0px" y="0px" width="445px" height="385px" viewBox="119.838 5 445 385" enable-background="new 119.838 5 445 385"
	 xml:space="preserve">
<defs>
</defs>
<rect x="0.5" y="0.5" display="none" fill="#333333" stroke="#000000" stroke-miterlimit="10" width="649" height="489"/>
<rect x="242.838" y="36.245" fill="none" stroke="#4D4D4F" stroke-miterlimit="10" width="304.568" height="16.999"/>
<polygon fill="#BBBDBF" points="249.921,50.411 245.671,50.411 251.337,39.078 255.587,39.078 "/>
<polygon fill="#BBBDBF" points="256.969,50.411 252.72,50.411 258.385,39.078 262.636,39.078 "/>
<polygon fill="#BBBDBF" points="264.018,50.411 259.768,50.411 265.435,39.078 269.684,39.078 "/>
<polygon fill="#BBBDBF" points="271.066,50.411 266.817,50.411 272.483,39.079 276.733,39.079 "/>
<polygon fill="#BBBDBF" points="278.114,50.411 273.865,50.411 279.531,39.078 283.781,39.078 "/>
<polygon fill="#BBBDBF" points="285.164,50.411 280.913,50.411 286.58,39.078 290.83,39.078 "/>
<polygon fill="#BBBDBF" points="292.212,50.411 287.962,50.411 293.628,39.079 297.878,39.079 "/>
<polygon fill="#BBBDBF" points="299.26,50.411 295.01,50.411 300.676,39.078 304.926,39.078 "/>
<polygon fill="#BBBDBF" points="306.308,50.41 302.058,50.41 307.725,39.078 311.975,39.078 "/>
<polygon fill="#BBBDBF" points="313.356,50.411 309.107,50.411 314.774,39.078 319.023,39.078 "/>
<polygon fill="#BBBDBF" points="320.406,50.411 316.156,50.411 321.823,39.079 326.072,39.079 "/>
<polygon fill="#BBBDBF" points="327.453,50.411 323.204,50.411 328.871,39.078 333.119,39.078 "/>
<polygon fill="#BBBDBF" points="334.502,50.411 330.252,50.411 335.918,39.078 340.168,39.078 "/>
<polygon fill="#BBBDBF" points="341.552,50.411 337.301,50.411 342.967,39.078 347.217,39.078 "/>
<polygon fill="#BBBDBF" points="348.6,50.411 344.35,50.411 350.016,39.079 354.266,39.079 "/>
<polygon fill="#BBBDBF" points="355.647,50.411 351.398,50.411 357.063,39.078 361.314,39.078 "/>
<polygon fill="#BBBDBF" points="362.695,50.41 358.445,50.41 364.112,39.078 368.361,39.078 "/>
<polygon fill="#BBBDBF" points="369.744,50.411 365.494,50.411 371.162,39.078 375.41,39.078 "/>
<polygon fill="#BBBDBF" points="376.794,50.411 372.543,50.411 378.21,39.079 382.46,39.079 "/>
<polygon fill="#BBBDBF" points="383.841,50.411 379.591,50.411 385.257,39.078 389.508,39.078 "/>
<polygon fill="#BBBDBF" points="390.889,50.411 386.641,50.411 392.306,39.078 396.556,39.078 "/>
<polygon fill="#BBBDBF" points="397.938,50.411 393.688,50.411 399.355,39.078 403.605,39.078 "/>
<polygon fill="#BBBDBF" points="404.987,50.411 400.736,50.411 406.403,39.079 410.653,39.079 "/>
<polygon fill="#BBBDBF" points="412.035,50.411 407.786,50.411 413.452,39.078 417.702,39.078 "/>
<polygon fill="#BBBDBF" points="419.084,50.411 414.833,50.411 420.5,39.079 424.75,39.079 "/>
<polygon fill="#BBBDBF" points="426.132,50.411 421.883,50.411 427.549,39.078 431.799,39.078 "/>
<polygon fill="#BBBDBF" points="433.181,50.411 428.93,50.411 434.596,39.078 438.847,39.078 "/>
<polygon fill="#BBBDBF" points="440.229,50.411 435.979,50.411 441.646,39.078 445.896,39.078 "/>
<polygon fill="#BBBDBF" points="447.277,50.411 443.027,50.411 448.694,39.078 452.944,39.078 "/>
<polygon fill="#BBBDBF" points="454.326,50.411 450.076,50.411 455.742,39.079 459.992,39.079 "/>
<polygon fill="#BBBDBF" points="461.373,50.411 457.124,50.411 462.791,39.078 467.041,39.078 "/>
<polygon fill="#BBBDBF" points="468.423,50.411 464.173,50.411 469.839,39.079 474.089,39.079 "/>
<polygon fill="#BBBDBF" points="475.47,50.411 471.222,50.411 476.888,39.079 481.138,39.079 "/>
<polygon fill="#BBBDBF" points="482.52,50.411 478.27,50.411 483.937,39.079 488.186,39.079 "/>
<polygon fill="#BBBDBF" points="489.567,50.411 485.318,50.411 490.984,39.078 495.234,39.078 "/>
<polygon fill="#BBBDBF" points="496.616,50.411 492.366,50.411 498.033,39.079 502.282,39.079 "/>
<polygon fill="#BBBDBF" points="503.665,50.411 499.413,50.411 505.08,39.079 509.331,39.079 "/>
<polygon fill="#BBBDBF" points="510.713,50.411 506.463,50.411 512.13,39.079 516.38,39.079 "/>
<polygon fill="#BBBDBF" points="517.762,50.411 513.512,50.411 519.178,39.078 523.428,39.078 "/>
<polygon fill="#BBBDBF" points="524.81,50.411 520.56,50.411 526.227,39.079 530.477,39.079 "/>
<polygon fill="#BBBDBF" points="531.858,50.411 527.608,50.411 533.274,39.078 537.524,39.078 "/>
<polygon fill="#BBBDBF" points="538.906,50.411 534.657,50.411 540.323,39.079 544.573,39.079 "/>
<polygon fill="#BBBDBF" points="245.67,39.078 245.67,44.746 248.504,39.078 "/>
<polygon fill="#BBBDBF" points="544.573,44.745 541.74,50.411 544.573,50.411 "/>
<rect x="245.671" y="39.078" fill="#778E96" width="299.479" height="11.333"/>
<polygon fill="none" stroke="#4D4D4F" stroke-miterlimit="10" points="551.655,26.757 544.323,34.089 536.073,26.757 
	536.073,11.174 551.655,11.174 "/>
<polygon fill="#333333" points="549.276,25.497 544.184,30.589 538.454,25.497 538.348,13.58 549.17,13.58 "/>
<rect x="241.648" y="90.57" fill="none" stroke="#4D4D4F" stroke-miterlimit="10" width="304.568" height="16.999"/>
<polygon fill="#BBBDBF" points="248.731,104.735 244.481,104.735 250.148,93.403 254.398,93.403 "/>
<polygon fill="#BBBDBF" points="255.779,104.735 251.53,104.735 257.196,93.403 261.446,93.403 "/>
<polygon fill="#BBBDBF" points="262.828,104.735 258.579,104.735 264.246,93.403 268.495,93.403 "/>
<polygon fill="#BBBDBF" points="269.876,104.735 265.627,104.735 271.294,93.403 275.544,93.403 "/>
<polygon fill="#BBBDBF" points="276.925,104.735 272.675,104.735 278.342,93.403 282.591,93.403 "/>
<polygon fill="#BBBDBF" points="283.974,104.735 279.724,104.735 285.391,93.403 289.641,93.403 "/>
<polygon fill="#BBBDBF" points="291.022,104.735 286.772,104.735 292.439,93.403 296.689,93.403 "/>
<polygon fill="#BBBDBF" points="298.07,104.735 293.82,104.735 299.487,93.403 303.737,93.403 "/>
<polygon fill="#BBBDBF" points="305.119,104.735 300.869,104.735 306.535,93.403 310.785,93.403 "/>
<polygon fill="#BBBDBF" points="312.167,104.735 307.918,104.735 313.584,93.403 317.834,93.403 "/>
<polygon fill="#BBBDBF" points="319.216,104.735 314.967,104.735 320.633,93.403 324.882,93.403 "/>
<polygon fill="#BBBDBF" points="326.264,104.735 322.015,104.735 327.682,93.403 331.93,93.403 "/>
<polygon fill="#BBBDBF" points="333.313,104.735 329.063,104.735 334.729,93.403 338.979,93.403 "/>
<polygon fill="#BBBDBF" points="340.362,104.735 336.111,104.735 341.777,93.403 346.027,93.403 "/>
<polygon fill="#BBBDBF" points="347.41,104.735 343.16,104.735 348.826,93.403 353.076,93.403 "/>
<polygon fill="#BBBDBF" points="354.458,104.735 350.209,104.735 355.874,93.403 360.125,93.403 "/>
<polygon fill="#BBBDBF" points="361.506,104.735 357.256,104.735 362.923,93.403 367.172,93.403 "/>
<polygon fill="#BBBDBF" points="368.555,104.735 364.305,104.735 369.973,93.403 374.221,93.403 "/>
<polygon fill="#BBBDBF" points="375.604,104.735 371.354,104.735 377.021,93.403 381.271,93.403 "/>
<polygon fill="#BBBDBF" points="382.651,104.735 378.401,104.735 384.067,93.403 388.318,93.403 "/>
<polygon fill="#BBBDBF" points="389.699,104.735 385.451,104.735 391.116,93.403 395.366,93.403 "/>
<polygon fill="#BBBDBF" points="396.749,104.735 392.498,104.735 398.166,93.403 402.416,93.403 "/>
<polygon fill="#BBBDBF" points="403.798,104.735 399.547,104.735 405.214,93.403 409.464,93.403 "/>
<polygon fill="#BBBDBF" points="410.846,104.735 406.597,104.735 412.263,93.403 416.513,93.403 "/>
<polygon fill="#BBBDBF" points="417.895,104.735 413.644,104.735 419.311,93.403 423.561,93.403 "/>
<polygon fill="#BBBDBF" points="424.942,104.735 420.693,104.735 426.359,93.403 430.609,93.403 "/>
<polygon fill="#BBBDBF" points="431.991,104.735 427.74,104.735 433.406,93.403 437.657,93.403 "/>
<polygon fill="#BBBDBF" points="439.04,104.735 434.79,104.735 440.456,93.403 444.706,93.403 "/>
<polygon fill="#BBBDBF" points="446.088,104.735 441.838,104.735 447.505,93.403 451.755,93.403 "/>
<polygon fill="#BBBDBF" points="453.137,104.735 448.887,104.735 454.553,93.403 458.803,93.403 "/>
<polygon fill="#BBBDBF" points="460.184,104.735 455.935,104.735 461.602,93.403 465.852,93.403 "/>
<polygon fill="#BBBDBF" points="467.233,104.735 462.983,104.735 468.649,93.403 472.899,93.403 "/>
<polygon fill="#BBBDBF" points="474.28,104.735 470.032,104.735 475.698,93.403 479.948,93.403 "/>
<polygon fill="#BBBDBF" points="481.33,104.735 477.08,104.735 482.747,93.403 486.996,93.403 "/>
<polygon fill="#BBBDBF" points="488.378,104.735 484.129,104.735 489.795,93.403 494.045,93.403 "/>
<polygon fill="#BBBDBF" points="495.427,104.735 491.177,104.735 496.844,93.403 501.093,93.403 "/>
<polygon fill="#BBBDBF" points="502.476,104.735 498.224,104.735 503.891,93.403 508.142,93.403 "/>
<polygon fill="#BBBDBF" points="509.523,104.735 505.273,104.735 510.94,93.403 515.19,93.403 "/>
<polygon fill="#BBBDBF" points="516.572,104.735 512.322,104.735 517.988,93.403 522.238,93.403 "/>
<polygon fill="#BBBDBF" points="523.62,104.735 519.37,104.735 525.037,93.403 529.287,93.403 "/>
<polygon fill="#BBBDBF" points="530.669,104.735 526.419,104.735 532.085,93.403 536.335,93.403 "/>
<polygon fill="#BBBDBF" points="537.717,104.735 533.468,104.735 539.134,93.403 543.384,93.403 "/>
<polygon fill="#BBBDBF" points="244.481,93.403 244.481,99.071 247.315,93.403 "/>
<polygon fill="#BBBDBF" points="543.384,99.069 540.551,104.735 543.384,104.735 "/>
<rect x="244.481" y="93.403" fill="#778E96" width="283.264" height="11.332"/>
<polygon fill="none" stroke="#4D4D4F" stroke-miterlimit="10" points="534.507,81.082 527.175,88.414 518.925,81.082 
	518.925,65.499 534.507,65.499 "/>
<polygon fill="#333333" points="532.128,79.821 527.035,84.914 521.306,79.821 521.199,67.904 532.021,67.904 "/>
<rect x="242.781" y="149.302" fill="none" stroke="#4D4D4F" stroke-miterlimit="10" width="304.568" height="16.999"/>
<polygon fill="#BBBDBF" points="249.864,163.467 245.614,163.467 251.281,152.135 255.531,152.135 "/>
<polygon fill="#BBBDBF" points="256.912,163.467 252.663,163.467 258.329,152.135 262.579,152.135 "/>
<polygon fill="#BBBDBF" points="263.961,163.467 259.711,163.467 265.378,152.135 269.627,152.135 "/>
<polygon fill="#BBBDBF" points="271.009,163.467 266.76,163.467 272.427,152.135 276.677,152.135 "/>
<polygon fill="#BBBDBF" points="278.058,163.467 273.808,163.467 279.475,152.135 283.724,152.135 "/>
<polygon fill="#BBBDBF" points="285.107,163.467 280.856,163.467 286.523,152.135 290.773,152.135 "/>
<polygon fill="#BBBDBF" points="292.155,163.467 287.905,163.467 293.572,152.135 297.822,152.135 "/>
<polygon fill="#BBBDBF" points="299.203,163.467 294.953,163.467 300.62,152.135 304.87,152.135 "/>
<polygon fill="#BBBDBF" points="306.251,163.467 302.001,163.467 307.668,152.135 311.918,152.135 "/>
<polygon fill="#BBBDBF" points="313.3,163.467 309.051,163.467 314.717,152.135 318.967,152.135 "/>
<polygon fill="#BBBDBF" points="320.349,163.467 316.1,163.467 321.766,152.135 326.015,152.135 "/>
<polygon fill="#BBBDBF" points="327.396,163.467 323.147,163.467 328.814,152.135 333.063,152.135 "/>
<polygon fill="#BBBDBF" points="334.445,163.467 330.195,163.467 335.861,152.135 340.111,152.135 "/>
<polygon fill="#BBBDBF" points="341.495,163.467 337.244,163.467 342.91,152.135 347.16,152.135 "/>
<polygon fill="#BBBDBF" points="348.543,163.467 344.293,163.467 349.959,152.135 354.209,152.135 "/>
<polygon fill="#BBBDBF" points="355.591,163.467 351.342,163.467 357.007,152.135 361.258,152.135 "/>
<polygon fill="#BBBDBF" points="362.639,163.467 358.389,163.467 364.056,152.135 368.305,152.135 "/>
<polygon fill="#BBBDBF" points="369.688,163.467 365.438,163.467 371.105,152.135 375.354,152.135 "/>
<polygon fill="#BBBDBF" points="376.737,163.467 372.486,163.467 378.153,152.135 382.403,152.135 "/>
<polygon fill="#BBBDBF" points="383.784,163.467 379.534,163.467 385.2,152.135 389.451,152.135 "/>
<polygon fill="#BBBDBF" points="390.832,163.467 386.584,163.467 392.249,152.135 396.499,152.135 "/>
<polygon fill="#BBBDBF" points="397.882,163.467 393.631,163.467 399.299,152.135 403.549,152.135 "/>
<polygon fill="#BBBDBF" points="404.931,163.467 400.68,163.467 406.347,152.135 410.597,152.135 "/>
<polygon fill="#BBBDBF" points="411.979,163.467 407.729,163.467 413.396,152.135 417.646,152.135 "/>
<polygon fill="#BBBDBF" points="419.027,163.467 414.776,163.467 420.443,152.135 424.693,152.135 "/>
<polygon fill="#BBBDBF" points="426.075,163.467 421.826,163.467 427.492,152.135 431.742,152.135 "/>
<polygon fill="#BBBDBF" points="433.124,163.467 428.873,163.467 434.539,152.135 438.79,152.135 "/>
<polygon fill="#BBBDBF" points="440.173,163.467 435.923,163.467 441.589,152.135 445.839,152.135 "/>
<polygon fill="#BBBDBF" points="447.221,163.467 442.971,163.467 448.638,152.135 452.888,152.135 "/>
<polygon fill="#BBBDBF" points="454.27,163.467 450.02,163.467 455.686,152.135 459.936,152.135 "/>
<polygon fill="#BBBDBF" points="461.316,163.467 457.067,163.467 462.734,152.135 466.984,152.135 "/>
<polygon fill="#BBBDBF" points="468.366,163.467 464.116,163.467 469.782,152.135 474.032,152.135 "/>
<polygon fill="#BBBDBF" points="475.413,163.467 471.165,163.467 476.831,152.135 481.081,152.135 "/>
<polygon fill="#BBBDBF" points="482.463,163.467 478.213,163.467 483.88,152.135 488.129,152.135 "/>
<polygon fill="#BBBDBF" points="489.511,163.467 485.262,163.467 490.928,152.135 495.178,152.135 "/>
<polygon fill="#BBBDBF" points="496.56,163.467 492.31,163.467 497.977,152.135 502.226,152.135 "/>
<polygon fill="#BBBDBF" points="503.608,163.467 499.356,163.467 505.023,152.135 509.274,152.135 "/>
<polygon fill="#BBBDBF" points="510.656,163.467 506.406,163.467 512.073,152.135 516.323,152.135 "/>
<polygon fill="#BBBDBF" points="517.705,163.467 513.455,163.467 519.121,152.135 523.371,152.135 "/>
<polygon fill="#BBBDBF" points="524.753,163.467 520.503,163.467 526.17,152.135 530.42,152.135 "/>
<polygon fill="#BBBDBF" points="531.802,163.467 527.552,163.467 533.218,152.135 537.468,152.135 "/>
<polygon fill="#BBBDBF" points="538.85,163.467 534.601,163.467 540.267,152.135 544.517,152.135 "/>
<polygon fill="#BBBDBF" points="245.614,152.135 245.614,157.803 248.448,152.135 "/>
<polygon fill="#BBBDBF" points="544.517,157.801 541.684,163.467 544.517,163.467 "/>
<rect x="245.614" y="152.135" fill="#778E96" width="299.354" height="11.332"/>
<polygon fill="none" stroke="#4D4D4F" stroke-miterlimit="10" points="551.829,139.813 544.497,147.146 536.247,139.813 
	536.247,124.231 551.829,124.231 "/>
<polygon fill="#333333" points="549.45,138.553 544.357,143.646 538.628,138.553 538.521,126.636 549.344,126.636 "/>
<rect x="242.324" y="203.731" fill="none" stroke="#4D4D4F" stroke-miterlimit="10" width="304.568" height="16.999"/>
<polygon fill="#BBBDBF" points="249.407,217.896 245.157,217.896 250.824,206.564 255.074,206.564 "/>
<polygon fill="#BBBDBF" points="256.455,217.896 252.206,217.896 257.872,206.564 262.122,206.564 "/>
<polygon fill="#BBBDBF" points="263.504,217.896 259.254,217.896 264.921,206.564 269.17,206.564 "/>
<polygon fill="#BBBDBF" points="270.552,217.896 266.303,217.896 271.97,206.565 276.22,206.565 "/>
<polygon fill="#BBBDBF" points="277.601,217.896 273.351,217.896 279.018,206.564 283.267,206.564 "/>
<polygon fill="#BBBDBF" points="284.65,217.896 280.399,217.896 286.066,206.564 290.316,206.564 "/>
<polygon fill="#BBBDBF" points="291.698,217.896 287.448,217.896 293.115,206.565 297.365,206.565 "/>
<polygon fill="#BBBDBF" points="298.746,217.896 294.496,217.896 300.163,206.564 304.413,206.564 "/>
<polygon fill="#BBBDBF" points="305.794,217.896 301.544,217.896 307.211,206.564 311.461,206.564 "/>
<polygon fill="#BBBDBF" points="312.843,217.896 308.594,217.896 314.26,206.564 318.51,206.564 "/>
<polygon fill="#BBBDBF" points="319.892,217.896 315.643,217.896 321.309,206.565 325.558,206.565 "/>
<polygon fill="#BBBDBF" points="326.939,217.896 322.69,217.896 328.357,206.564 332.605,206.564 "/>
<polygon fill="#BBBDBF" points="333.988,217.896 329.738,217.896 335.404,206.564 339.654,206.564 "/>
<polygon fill="#BBBDBF" points="341.038,217.896 336.787,217.896 342.453,206.564 346.703,206.564 "/>
<polygon fill="#BBBDBF" points="348.086,217.896 343.836,217.896 349.502,206.565 353.752,206.565 "/>
<polygon fill="#BBBDBF" points="355.134,217.896 350.885,217.896 356.55,206.564 360.801,206.564 "/>
<polygon fill="#BBBDBF" points="362.182,217.896 357.932,217.896 363.599,206.564 367.848,206.564 "/>
<polygon fill="#BBBDBF" points="369.23,217.896 364.98,217.896 370.648,206.564 374.896,206.564 "/>
<polygon fill="#BBBDBF" points="376.28,217.896 372.029,217.896 377.696,206.565 381.946,206.565 "/>
<polygon fill="#BBBDBF" points="383.327,217.896 379.077,217.896 384.743,206.564 388.994,206.564 "/>
<polygon fill="#BBBDBF" points="390.375,217.896 386.127,217.896 391.792,206.564 396.042,206.564 "/>
<polygon fill="#BBBDBF" points="397.425,217.896 393.174,217.896 398.842,206.564 403.092,206.564 "/>
<polygon fill="#BBBDBF" points="404.474,217.896 400.223,217.896 405.89,206.565 410.14,206.565 "/>
<polygon fill="#BBBDBF" points="411.521,217.896 407.272,217.896 412.938,206.564 417.188,206.564 "/>
<polygon fill="#BBBDBF" points="418.57,217.896 414.319,217.896 419.986,206.565 424.236,206.565 "/>
<polygon fill="#BBBDBF" points="425.618,217.896 421.369,217.896 427.035,206.564 431.285,206.564 "/>
<polygon fill="#BBBDBF" points="432.667,217.896 428.416,217.896 434.082,206.564 438.333,206.564 "/>
<polygon fill="#BBBDBF" points="439.716,217.896 435.466,217.896 441.132,206.564 445.382,206.564 "/>
<polygon fill="#BBBDBF" points="446.764,217.896 442.514,217.896 448.181,206.564 452.431,206.564 "/>
<polygon fill="#BBBDBF" points="453.813,217.896 449.563,217.896 455.229,206.565 459.479,206.565 "/>
<polygon fill="#BBBDBF" points="460.859,217.896 456.61,217.896 462.277,206.564 466.527,206.564 "/>
<polygon fill="#BBBDBF" points="467.909,217.896 463.659,217.896 469.325,206.565 473.575,206.565 "/>
<polygon fill="#BBBDBF" points="474.956,217.896 470.708,217.896 476.374,206.565 480.624,206.565 "/>
<polygon fill="#BBBDBF" points="482.006,217.896 477.756,217.896 483.423,206.565 487.672,206.565 "/>
<polygon fill="#BBBDBF" points="489.054,217.896 484.805,217.896 490.471,206.564 494.721,206.564 "/>
<polygon fill="#BBBDBF" points="496.103,217.896 491.853,217.896 497.52,206.565 501.769,206.565 "/>
<polygon fill="#BBBDBF" points="503.151,217.896 498.899,217.896 504.566,206.565 508.817,206.565 "/>
<polygon fill="#BBBDBF" points="510.199,217.896 505.949,217.896 511.616,206.565 515.866,206.565 "/>
<polygon fill="#BBBDBF" points="517.248,217.896 512.998,217.896 518.664,206.564 522.914,206.564 "/>
<polygon fill="#BBBDBF" points="524.296,217.896 520.046,217.896 525.713,206.565 529.963,206.565 "/>
<polygon fill="#BBBDBF" points="531.345,217.896 527.095,217.896 532.761,206.564 537.011,206.564 "/>
<polygon fill="#BBBDBF" points="538.393,217.896 534.144,217.896 539.81,206.565 544.06,206.565 "/>
<polygon fill="#BBBDBF" points="245.157,206.564 245.157,212.232 247.991,206.564 "/>
<polygon fill="#BBBDBF" points="544.06,212.23 541.227,217.896 544.06,217.896 "/>
<rect x="245.157" y="206.564" fill="#778E96" width="230.561" height="11.332"/>
<polygon fill="none" stroke="#4D4D4F" stroke-miterlimit="10" points="482.454,194.27 475.122,201.602 466.872,194.27 
	466.872,178.688 482.454,178.688 "/>
<polygon fill="#333333" points="480.075,193.01 474.982,198.102 469.253,193.01 469.146,181.093 479.969,181.093 "/>
<rect x="242.298" y="258.137" fill="none" stroke="#4D4D4F" stroke-miterlimit="10" width="304.568" height="16.999"/>
<polygon fill="#BBBDBF" points="249.381,272.302 245.131,272.302 250.797,260.97 255.047,260.97 "/>
<polygon fill="#BBBDBF" points="256.429,272.302 252.18,272.302 257.845,260.97 262.096,260.97 "/>
<polygon fill="#BBBDBF" points="263.478,272.302 259.228,272.302 264.895,260.97 269.144,260.97 "/>
<polygon fill="#BBBDBF" points="270.526,272.302 266.277,272.302 271.943,260.971 276.193,260.971 "/>
<polygon fill="#BBBDBF" points="277.574,272.302 273.325,272.302 278.991,260.97 283.241,260.97 "/>
<polygon fill="#BBBDBF" points="284.624,272.302 280.373,272.302 286.04,260.97 290.29,260.97 "/>
<polygon fill="#BBBDBF" points="291.672,272.302 287.422,272.302 293.088,260.971 297.338,260.971 "/>
<polygon fill="#BBBDBF" points="298.72,272.302 294.47,272.302 300.136,260.97 304.386,260.97 "/>
<polygon fill="#BBBDBF" points="305.768,272.302 301.518,272.302 307.185,260.97 311.435,260.97 "/>
<polygon fill="#BBBDBF" points="312.816,272.302 308.567,272.302 314.234,260.97 318.483,260.97 "/>
<polygon fill="#BBBDBF" points="319.866,272.302 315.616,272.302 321.283,260.971 325.532,260.971 "/>
<polygon fill="#BBBDBF" points="326.913,272.302 322.664,272.302 328.331,260.97 332.579,260.97 "/>
<polygon fill="#BBBDBF" points="333.962,272.302 329.712,272.302 335.378,260.97 339.628,260.97 "/>
<polygon fill="#BBBDBF" points="341.012,272.302 336.761,272.302 342.427,260.97 346.677,260.97 "/>
<polygon fill="#BBBDBF" points="348.06,272.302 343.81,272.302 349.476,260.971 353.726,260.971 "/>
<polygon fill="#BBBDBF" points="355.107,272.302 350.858,272.302 356.523,260.97 360.774,260.97 "/>
<polygon fill="#BBBDBF" points="362.155,272.302 357.905,272.302 363.572,260.97 367.821,260.97 "/>
<polygon fill="#BBBDBF" points="369.204,272.302 364.954,272.302 370.622,260.97 374.87,260.97 "/>
<polygon fill="#BBBDBF" points="376.254,272.302 372.003,272.302 377.67,260.971 381.92,260.971 "/>
<polygon fill="#BBBDBF" points="383.301,272.302 379.051,272.302 384.717,260.97 388.968,260.97 "/>
<polygon fill="#BBBDBF" points="390.349,272.302 386.101,272.302 391.766,260.97 396.016,260.97 "/>
<polygon fill="#BBBDBF" points="397.398,272.302 393.147,272.302 398.815,260.97 403.065,260.97 "/>
<polygon fill="#BBBDBF" points="404.447,272.302 400.196,272.302 405.863,260.971 410.113,260.971 "/>
<polygon fill="#BBBDBF" points="411.495,272.302 407.246,272.302 412.912,260.97 417.162,260.97 "/>
<polygon fill="#BBBDBF" points="418.544,272.302 414.293,272.302 419.96,260.971 424.21,260.971 "/>
<polygon fill="#BBBDBF" points="425.592,272.302 421.343,272.302 427.009,260.97 431.259,260.97 "/>
<polygon fill="#BBBDBF" points="432.641,272.302 428.39,272.302 434.056,260.97 438.307,260.97 "/>
<polygon fill="#BBBDBF" points="439.689,272.302 435.439,272.302 441.105,260.97 445.355,260.97 "/>
<polygon fill="#BBBDBF" points="446.737,272.302 442.487,272.302 448.154,260.97 452.404,260.97 "/>
<polygon fill="#BBBDBF" points="453.786,272.302 449.536,272.302 455.202,260.971 459.452,260.971 "/>
<polygon fill="#BBBDBF" points="460.833,272.302 456.584,272.302 462.251,260.97 466.501,260.97 "/>
<polygon fill="#BBBDBF" points="467.883,272.302 463.633,272.302 469.299,260.971 473.549,260.971 "/>
<polygon fill="#BBBDBF" points="474.93,272.302 470.682,272.302 476.348,260.971 480.598,260.971 "/>
<polygon fill="#BBBDBF" points="481.979,272.302 477.729,272.302 483.396,260.971 487.646,260.971 "/>
<polygon fill="#BBBDBF" points="489.027,272.302 484.778,272.302 490.444,260.97 494.694,260.97 "/>
<polygon fill="#BBBDBF" points="496.076,272.302 491.826,272.302 497.493,260.971 501.742,260.971 "/>
<polygon fill="#BBBDBF" points="503.125,272.302 498.873,272.302 504.54,260.971 508.791,260.971 "/>
<polygon fill="#BBBDBF" points="510.173,272.302 505.923,272.302 511.59,260.971 515.84,260.971 "/>
<polygon fill="#BBBDBF" points="517.222,272.302 512.972,272.302 518.638,260.97 522.888,260.97 "/>
<polygon fill="#BBBDBF" points="524.27,272.302 520.02,272.302 525.687,260.971 529.937,260.971 "/>
<polygon fill="#BBBDBF" points="531.318,272.302 527.068,272.302 532.734,260.97 536.984,260.97 "/>
<polygon fill="#BBBDBF" points="538.366,272.302 534.117,272.302 539.783,260.971 544.033,260.971 "/>
<polygon fill="#BBBDBF" points="245.13,260.97 245.13,266.638 247.964,260.97 "/>
<polygon fill="#BBBDBF" points="544.033,266.636 541.2,272.302 544.033,272.302 "/>
<rect x="245.131" y="260.97" fill="#778E96" width="230.561" height="11.332"/>
<polygon fill="none" stroke="#4D4D4F" stroke-miterlimit="10" points="482.427,248.324 475.095,255.656 466.845,248.324 
	466.845,232.742 482.427,232.742 "/>
<polygon fill="#333333" points="480.048,247.064 474.955,252.156 469.226,247.064 469.119,235.147 479.941,235.147 "/>
<rect x="242.648" y="312.19" fill="none" stroke="#4D4D4F" stroke-miterlimit="10" width="304.568" height="16.999"/>
<polygon fill="#BBBDBF" points="249.731,326.355 245.481,326.355 251.148,315.023 255.398,315.023 "/>
<polygon fill="#BBBDBF" points="256.779,326.355 252.53,326.355 258.196,315.023 262.446,315.023 "/>
<polygon fill="#BBBDBF" points="263.828,326.355 259.579,326.355 265.246,315.023 269.495,315.023 "/>
<polygon fill="#BBBDBF" points="270.876,326.355 266.627,326.355 272.294,315.023 276.544,315.023 "/>
<polygon fill="#BBBDBF" points="277.925,326.355 273.675,326.355 279.342,315.023 283.591,315.023 "/>
<polygon fill="#BBBDBF" points="284.974,326.355 280.724,326.355 286.391,315.023 290.641,315.023 "/>
<polygon fill="#BBBDBF" points="292.022,326.355 287.772,326.355 293.439,315.023 297.689,315.023 "/>
<polygon fill="#BBBDBF" points="299.07,326.355 294.82,326.355 300.487,315.023 304.737,315.023 "/>
<polygon fill="#BBBDBF" points="306.119,326.355 301.869,326.355 307.535,315.023 311.785,315.023 "/>
<polygon fill="#BBBDBF" points="313.167,326.355 308.918,326.355 314.584,315.023 318.834,315.023 "/>
<polygon fill="#BBBDBF" points="320.216,326.355 315.967,326.355 321.633,315.023 325.882,315.023 "/>
<polygon fill="#BBBDBF" points="327.264,326.355 323.015,326.355 328.682,315.023 332.93,315.023 "/>
<polygon fill="#BBBDBF" points="334.313,326.355 330.063,326.355 335.729,315.023 339.979,315.023 "/>
<polygon fill="#BBBDBF" points="341.362,326.355 337.111,326.355 342.777,315.023 347.027,315.023 "/>
<polygon fill="#BBBDBF" points="348.41,326.355 344.16,326.355 349.826,315.023 354.076,315.023 "/>
<polygon fill="#BBBDBF" points="355.458,326.355 351.209,326.355 356.874,315.023 361.125,315.023 "/>
<polygon fill="#BBBDBF" points="362.506,326.355 358.256,326.355 363.923,315.023 368.172,315.023 "/>
<polygon fill="#BBBDBF" points="369.555,326.355 365.305,326.355 370.973,315.023 375.221,315.023 "/>
<polygon fill="#BBBDBF" points="376.604,326.355 372.354,326.355 378.021,315.023 382.271,315.023 "/>
<polygon fill="#BBBDBF" points="383.651,326.355 379.401,326.355 385.067,315.023 389.318,315.023 "/>
<polygon fill="#BBBDBF" points="390.699,326.355 386.451,326.355 392.116,315.023 396.366,315.023 "/>
<polygon fill="#BBBDBF" points="397.749,326.355 393.498,326.355 399.166,315.023 403.416,315.023 "/>
<polygon fill="#BBBDBF" points="404.798,326.355 400.547,326.355 406.214,315.023 410.464,315.023 "/>
<polygon fill="#BBBDBF" points="411.846,326.355 407.597,326.355 413.263,315.023 417.513,315.023 "/>
<polygon fill="#BBBDBF" points="418.895,326.355 414.644,326.355 420.311,315.023 424.561,315.023 "/>
<polygon fill="#BBBDBF" points="425.942,326.355 421.693,326.355 427.359,315.023 431.609,315.023 "/>
<polygon fill="#BBBDBF" points="432.991,326.355 428.74,326.355 434.406,315.023 438.657,315.023 "/>
<polygon fill="#BBBDBF" points="440.04,326.355 435.79,326.355 441.456,315.023 445.706,315.023 "/>
<polygon fill="#BBBDBF" points="447.088,326.355 442.838,326.355 448.505,315.023 452.755,315.023 "/>
<polygon fill="#BBBDBF" points="454.137,326.355 449.887,326.355 455.553,315.023 459.803,315.023 "/>
<polygon fill="#BBBDBF" points="461.184,326.355 456.935,326.355 462.602,315.023 466.852,315.023 "/>
<polygon fill="#BBBDBF" points="468.233,326.355 463.983,326.355 469.649,315.023 473.899,315.023 "/>
<polygon fill="#BBBDBF" points="475.28,326.355 471.032,326.355 476.698,315.023 480.948,315.023 "/>
<polygon fill="#BBBDBF" points="482.33,326.355 478.08,326.355 483.747,315.023 487.996,315.023 "/>
<polygon fill="#BBBDBF" points="489.378,326.355 485.129,326.355 490.795,315.023 495.045,315.023 "/>
<polygon fill="#BBBDBF" points="496.427,326.355 492.177,326.355 497.844,315.023 502.093,315.023 "/>
<polygon fill="#BBBDBF" points="503.476,326.355 499.224,326.355 504.891,315.023 509.142,315.023 "/>
<polygon fill="#BBBDBF" points="510.523,326.355 506.273,326.355 511.94,315.023 516.19,315.023 "/>
<polygon fill="#BBBDBF" points="517.572,326.355 513.322,326.355 518.988,315.023 523.238,315.023 "/>
<polygon fill="#BBBDBF" points="524.62,326.355 520.37,326.355 526.037,315.023 530.287,315.023 "/>
<polygon fill="#BBBDBF" points="531.669,326.355 527.419,326.355 533.085,315.023 537.335,315.023 "/>
<polygon fill="#BBBDBF" points="538.717,326.355 534.468,326.355 540.134,315.023 544.384,315.023 "/>
<polygon fill="#BBBDBF" points="245.481,315.023 245.481,320.691 248.315,315.023 "/>
<polygon fill="#BBBDBF" points="544.384,320.689 541.551,326.355 544.384,326.355 "/>
<rect x="245.481" y="314.842" fill="#778E96" width="193.398" height="11.566"/>
<polygon fill="none" stroke="#4D4D4F" stroke-miterlimit="10" points="446.642,302.702 439.31,310.034 431.06,302.702 
	431.06,287.119 446.642,287.119 "/>
<polygon fill="#333333" points="444.263,301.441 439.17,306.534 433.44,301.441 433.334,289.525 444.156,289.525 "/>
<rect x="242.324" y="366.245" fill="none" stroke="#4D4D4F" stroke-miterlimit="10" width="304.568" height="16.999"/>
<polygon fill="#BBBDBF" points="249.407,380.41 245.157,380.41 250.824,369.078 255.074,369.078 "/>
<polygon fill="#BBBDBF" points="256.455,380.41 252.206,380.41 257.872,369.078 262.122,369.078 "/>
<polygon fill="#BBBDBF" points="263.504,380.41 259.254,380.41 264.921,369.078 269.17,369.078 "/>
<polygon fill="#BBBDBF" points="270.552,380.41 266.303,380.41 271.97,369.078 276.22,369.078 "/>
<polygon fill="#BBBDBF" points="277.601,380.41 273.351,380.41 279.018,369.078 283.267,369.078 "/>
<polygon fill="#BBBDBF" points="284.65,380.41 280.399,380.41 286.066,369.078 290.316,369.078 "/>
<polygon fill="#BBBDBF" points="291.698,380.41 287.448,380.41 293.115,369.078 297.365,369.078 "/>
<polygon fill="#BBBDBF" points="298.746,380.41 294.496,380.41 300.163,369.078 304.413,369.078 "/>
<polygon fill="#BBBDBF" points="305.794,380.41 301.544,380.41 307.211,369.078 311.461,369.078 "/>
<polygon fill="#BBBDBF" points="312.843,380.41 308.594,380.41 314.26,369.078 318.51,369.078 "/>
<polygon fill="#BBBDBF" points="319.892,380.41 315.643,380.41 321.309,369.078 325.558,369.078 "/>
<polygon fill="#BBBDBF" points="326.939,380.41 322.69,380.41 328.357,369.078 332.605,369.078 "/>
<polygon fill="#BBBDBF" points="333.988,380.41 329.738,380.41 335.404,369.078 339.654,369.078 "/>
<polygon fill="#BBBDBF" points="341.038,380.41 336.787,380.41 342.453,369.078 346.703,369.078 "/>
<polygon fill="#BBBDBF" points="348.086,380.41 343.836,380.41 349.502,369.078 353.752,369.078 "/>
<polygon fill="#BBBDBF" points="355.134,380.41 350.885,380.41 356.55,369.078 360.801,369.078 "/>
<polygon fill="#BBBDBF" points="362.182,380.41 357.932,380.41 363.599,369.078 367.848,369.078 "/>
<polygon fill="#BBBDBF" points="369.23,380.41 364.98,380.41 370.648,369.078 374.896,369.078 "/>
<polygon fill="#BBBDBF" points="376.28,380.41 372.029,380.41 377.696,369.078 381.946,369.078 "/>
<polygon fill="#BBBDBF" points="383.327,380.41 379.077,380.41 384.743,369.078 388.994,369.078 "/>
<polygon fill="#BBBDBF" points="390.375,380.41 386.127,380.41 391.792,369.078 396.042,369.078 "/>
<polygon fill="#BBBDBF" points="397.425,380.41 393.174,380.41 398.842,369.078 403.092,369.078 "/>
<polygon fill="#BBBDBF" points="404.474,380.41 400.223,380.41 405.89,369.078 410.14,369.078 "/>
<polygon fill="#BBBDBF" points="411.521,380.41 407.272,380.41 412.938,369.078 417.188,369.078 "/>
<polygon fill="#BBBDBF" points="418.57,380.41 414.319,380.41 419.986,369.078 424.236,369.078 "/>
<polygon fill="#BBBDBF" points="425.618,380.41 421.369,380.41 427.035,369.078 431.285,369.078 "/>
<polygon fill="#BBBDBF" points="432.667,380.41 428.416,380.41 434.082,369.078 438.333,369.078 "/>
<polygon fill="#BBBDBF" points="439.716,380.41 435.466,380.41 441.132,369.078 445.382,369.078 "/>
<polygon fill="#BBBDBF" points="446.764,380.41 442.514,380.41 448.181,369.078 452.431,369.078 "/>
<polygon fill="#BBBDBF" points="453.813,380.41 449.563,380.41 455.229,369.078 459.479,369.078 "/>
<polygon fill="#BBBDBF" points="460.859,380.41 456.61,380.41 462.277,369.078 466.527,369.078 "/>
<polygon fill="#BBBDBF" points="467.909,380.41 463.659,380.41 469.325,369.078 473.575,369.078 "/>
<polygon fill="#BBBDBF" points="474.956,380.41 470.708,380.41 476.374,369.078 480.624,369.078 "/>
<polygon fill="#BBBDBF" points="482.006,380.41 477.756,380.41 483.423,369.078 487.672,369.078 "/>
<polygon fill="#BBBDBF" points="489.054,380.41 484.805,380.41 490.471,369.078 494.721,369.078 "/>
<polygon fill="#BBBDBF" points="496.103,380.41 491.853,380.41 497.52,369.078 501.769,369.078 "/>
<polygon fill="#BBBDBF" points="503.151,380.41 498.899,380.41 504.566,369.078 508.817,369.078 "/>
<polygon fill="#BBBDBF" points="510.199,380.41 505.949,380.41 511.616,369.078 515.866,369.078 "/>
<polygon fill="#BBBDBF" points="517.248,380.41 512.998,380.41 518.664,369.078 522.914,369.078 "/>
<polygon fill="#BBBDBF" points="524.296,380.41 520.046,380.41 525.713,369.078 529.963,369.078 "/>
<polygon fill="#BBBDBF" points="531.345,380.41 527.095,380.41 532.761,369.078 537.011,369.078 "/>
<polygon fill="#BBBDBF" points="538.393,380.41 534.144,380.41 539.81,369.078 544.06,369.078 "/>
<polygon fill="#BBBDBF" points="245.157,369.078 245.157,374.746 247.991,369.078 "/>
<polygon fill="#BBBDBF" points="544.06,374.744 541.227,380.41 544.06,380.41 "/>
<rect x="245.157" y="369.078" fill="#778E96" width="158.264" height="11.332"/>
<polygon fill="none" stroke="#4D4D4F" stroke-miterlimit="10" points="411.466,356.757 404.134,364.089 395.884,356.757 
	395.884,341.174 411.466,341.174 "/>
<polygon fill="#333333" points="409.087,355.496 403.994,360.589 398.265,355.496 398.158,343.58 408.98,343.58 "/>
<text transform="matrix(1 0 0 1 163.6528 48.7563)" fill="#FFFFFF" font-family="'Limelight'" font-size="13">MAC &amp; PC</text>
<text transform="matrix(1 0 0 1 151.3315 103.2695)" fill="#FFFFFF" font-family="'Limelight'" font-size="13">HTML &amp; CSS</text>
<text transform="matrix(1 0 0 1 141.4302 162.918)" fill="#FFFFFF" font-family="'Limelight'" font-size="13">PHOTOSHOP</text>
<text transform="matrix(1 0 0 1 136.4517 215.2427)" fill="#FFFFFF" font-family="'Limelight'" font-size="13">ILLUSTRATOR</text>
<text transform="matrix(1 0 0 1 161.4688 270.2969)" fill="#FFFFFF" font-family="'Limelight'" font-size="13">INDESIGN</text>
<text transform="matrix(1 0 0 1 124.7178 323.7021)" fill="#FFFFFF" font-family="'Limelight'" font-size="13">DREAMWEAVER</text>
<text transform="matrix(1 0 0 1 187.665 379.4316)" fill="#FFFFFF" font-family="'Limelight'" font-size="13">FLASH</text>
</svg>
